<?xml version="1.0" encoding="UTF-8" standalone="no"?>
<!-- Created with Inkscape (http://www.inkscape.org/) -->

<svg
   width="58.453796mm"
   height="54.720093mm"
   viewBox="0 0 58.453796 54.720093"
   version="1.1"
   id="svg5"
   inkscape:version="1.2.2 (732a01da63, 2022-12-09)"
   xml:space="preserve"
   sodipodi:docname="drawing.svg"
   xmlns:inkscape="http://www.inkscape.org/namespaces/inkscape"
   xmlns:sodipodi="http://sodipodi.sourceforge.net/DTD/sodipodi-0.dtd"
   xmlns="http://www.w3.org/2000/svg"
   xmlns:svg="http://www.w3.org/2000/svg"><sodipodi:namedview
     id="namedview7"
     pagecolor="#505050"
     bordercolor="#ffffff"
     borderopacity="1"
     inkscape:showpageshadow="0"
     inkscape:pageopacity="0"
     inkscape:pagecheckerboard="1"
     inkscape:deskcolor="#505050"
     inkscape:document-units="px"
     showgrid="false"
     showborder="false"
     borderlayer="false"
     inkscape:zoom="1.6819304"
     inkscape:cx="1166.814"
     inkscape:cy="1915.9532"
     inkscape:window-width="1920"
     inkscape:window-height="1047"
     inkscape:window-x="-9"
     inkscape:window-y="-9"
     inkscape:window-maximized="1"
     inkscape:current-layer="layer1" /><defs
     id="defs2" /><g
     inkscape:label="Layer 1"
     inkscape:groupmode="layer"
     id="layer1"
     transform="translate(-180.77311,-751.81059)"><path
       style="fill:#000000;stroke-width:1"
       d="m 210.79274,805.63543 c -1.74625,-0.48308 -6.60049,-1.8071 -10.78721,-2.94227 l -7.6122,-2.06395 0.0716,-5.13383 0.0716,-5.13383 2.51354,-1.08548 c 3.68967,-1.59339 3.99686,-1.58335 17.026,0.55603 10.7783,1.76979 11.5409,1.95626 11.5409,2.82192 0,1.03601 -0.1537,1.05367 -10.36694,1.19062 l -9.86558,0.13229 v 0.79375 0.79375 l 2.24895,0.13935 2.24896,0.13935 3.04271,1.92744 c 2.60905,1.65274 3.17539,1.91103 3.97362,1.81228 0.512,-0.0633 2.43129,-0.96363 4.26508,-2.00065 1.83379,-1.03701 3.58363,-1.88548 3.88853,-1.88548 0.3049,0 0.96982,-0.36478 1.47761,-0.81062 1.34716,-1.18282 10.92599,-6.59771 11.67121,-6.59771 0.71065,0 1.2018,0.70141 0.95061,1.35756 -0.0909,0.23733 -2.66551,2.31367 -5.72145,4.61409 -3.05594,2.30042 -7.75891,5.84451 -10.45104,7.87577 -4.363,3.29194 -6.14516,4.44261 -6.80452,4.39338 -0.11382,-0.008 -1.63569,-0.41069 -3.38194,-0.89376 z m -27.6273,-2.50871 c -0.52932,-0.52932 -0.55083,-0.81493 -0.55083,-7.3151 0,-4.15681 0.10558,-6.96154 0.2739,-7.27604 0.24883,-0.46494 0.58294,-0.51177 3.65125,-0.51177 2.27405,0 3.48107,0.10372 3.69485,0.3175 0.39261,0.3926 0.44758,14.14785 0.059,14.76375 -0.19427,0.30791 -0.95947,0.41655 -3.41387,0.48468 -2.91642,0.081 -3.20649,0.0448 -3.71431,-0.46302 z m 5.13772,-2.5352 v -0.79376 h -1.71617 c -1.44521,0 -1.73072,0.0756 -1.80832,0.47848 -0.20406,1.05963 0.12772,1.27068 1.86742,1.18788 1.64727,-0.0784 1.65707,-0.0836 1.65707,-0.8726 z m 0,-9.78959 c 0,-0.79212 -0.003,-0.79375 -1.55867,-0.79375 -1.65679,0 -2.26716,0.41178 -1.92645,1.29967 0.13992,0.36464 0.47191,0.43123 1.82805,0.36669 1.64727,-0.0784 1.65707,-0.0836 1.65707,-0.87261 z m 24.5919,5.88698 -1.30857,-0.8599 1.65365,-0.0788 c 0.9095,-0.0433 2.39778,-0.0433 3.30729,0 l 1.65364,0.0788 -1.48741,0.8599 c -0.81808,0.47294 -1.7175,0.8599 -1.99872,0.8599 -0.28122,0 -1.10016,-0.38696 -1.81988,-0.8599 z m 11.95374,-5.91423 c -0.41046,-0.51441 -0.70489,-0.9628 -0.6543,-0.9964 0.0506,-0.0336 1.13473,-0.44925 2.40919,-0.92364 3.33214,-1.24032 5.92251,-0.9041 3.30905,0.4295 -0.62058,0.31667 -1.84593,0.99202 -2.72299,1.50079 l -1.59466,0.92504 z m -26.62377,-10.66917 c 0,-1.66495 -0.0639,-1.88312 -0.69714,-2.38125 -0.55795,-0.43889 -1.07564,-0.54837 -2.59292,-0.54837 -1.12171,0 -2.02541,-0.12964 -2.21327,-0.3175 -0.39707,-0.39707 -0.45322,-23.92887 -0.0586,-24.55333 0.21788,-0.34479 2.4715,-0.40631 17.16928,-0.4687 15.18575,-0.0645 16.96165,-0.0287 17.33994,0.34962 0.37312,0.37313 0.42145,1.79371 0.42145,12.38818 0,8.95468 -0.0799,12.04664 -0.3175,12.28423 -0.23577,0.23578 -2.89875,0.3175 -10.34565,0.3175 h -10.02816 l -4.19385,2.38125 c -2.30661,1.30969 -4.25904,2.38125 -4.33872,2.38125 -0.0797,0 -0.14487,-0.8248 -0.14487,-1.83288 z M 199.9809,773.87 c 0.0835,-0.21752 0.74349,-0.71754 1.46671,-1.11117 3.46994,-1.88857 3.52657,-6.75055 0.0998,-8.56845 l -1.20571,-0.63962 v -2.71244 c 0,-1.49183 0.0983,-2.71243 0.21846,-2.71243 0.44792,0 1.43478,1.31759 1.60304,2.14027 0.3445,1.68441 1.88266,1.77137 1.88266,0.10645 0,-1.76817 -1.51815,-3.8721 -3.07621,-4.26315 -0.33494,-0.0841 -0.68081,-0.37913 -0.76859,-0.65571 -0.2146,-0.67614 -1.61436,-0.6964 -1.82699,-0.0264 -0.0832,0.26202 -0.55928,0.62397 -1.05804,0.80432 -1.18191,0.42738 -2.45809,1.90024 -2.68237,3.09577 -0.26099,1.39118 0.0198,3.2572 0.61004,4.05425 0.46026,0.62151 1.18611,1.19325 2.56485,2.02029 0.37496,0.22492 0.42932,0.67485 0.36264,3.00135 l -0.0785,2.73676 -0.72754,-0.5731 c -0.4857,-0.3826 -0.78329,-0.92173 -0.89525,-1.6219 -0.30733,-1.92192 -1.94909,-1.97077 -1.94909,-0.058 0,1.56833 1.21861,3.21113 3.0768,4.14781 0.4553,0.22951 0.89805,0.60029 0.98388,0.82395 0.20002,0.52124 1.20056,0.52924 1.39936,0.0112 z m 0.3608,-5.4381 c 0,-2.02328 0.0808,-2.65067 0.33073,-2.5686 0.52804,0.17338 1.52135,1.80652 1.52135,2.50131 0,0.85537 -0.67891,2.11662 -1.32565,2.46275 -0.5094,0.27261 -0.52643,0.1951 -0.52643,-2.39546 z m -3.15153,-5.84385 c -0.63042,-0.67667 -0.92506,-1.84357 -0.67424,-2.67028 0.19965,-0.65803 1.14287,-1.79188 1.49064,-1.79188 0.12015,0 0.21846,1.13109 0.21846,2.51354 0,1.43138 -0.10947,2.51354 -0.25427,2.51354 -0.13986,0 -0.49112,-0.25421 -0.78059,-0.56492 z m 11.56528,11.35992 c 0.44082,-0.44082 0.39793,-1.9322 -0.0667,-2.31778 -0.58192,-0.48296 -1.29504,-0.22201 -1.57592,0.57667 -0.48759,1.38645 0.71866,2.66505 1.64259,1.74111 z m 9.82846,-1.12079 c 0.23617,-0.28457 0.24082,-0.51921 0.0185,-0.93458 -0.27797,-0.5194 -0.48311,-0.54987 -3.23128,-0.47993 -2.35744,0.06 -2.98732,0.15865 -3.20323,0.50174 -0.14782,0.23488 -0.19402,0.62183 -0.10267,0.85989 0.14034,0.36573 0.6341,0.43284 3.18471,0.43284 2.30072,0 3.09361,-0.0904 3.33396,-0.37996 z m -9.92674,-3.73998 c 0.35521,-0.35521 0.41578,-1.35416 0.41578,-6.85753 0,-3.54296 -0.0723,-6.63008 -0.1606,-6.86027 -0.18928,-0.49324 -1.18496,-0.55462 -1.63857,-0.10101 -0.22982,0.22983 -0.3175,2.12423 -0.3175,6.86027 0,5.59519 0.0602,6.60298 0.41578,6.95854 0.22867,0.22868 0.51782,0.41577 0.64256,0.41577 0.12473,0 0.41388,-0.18709 0.64255,-0.41577 z m 11.54567,0.14188 c 0.28148,-0.15064 0.51178,-0.50364 0.51178,-0.78444 0,-0.85558 -0.87358,-1.05833 -4.5599,-1.05833 -3.6054,0 -4.17135,0.14359 -4.17135,1.05833 0,0.91474 0.56595,1.05833 4.17135,1.05833 1.94499,0 3.76665,-0.12325 4.04812,-0.27389 z m 4.85576,0.11329 c 0.49324,-0.18927 0.55463,-1.18495 0.10102,-1.63856 -0.66981,-0.66981 -2.59292,-0.12034 -2.59292,0.74083 0,0.77869 1.44527,1.29936 2.4919,0.89773 z m 0.28622,-4.73419 v -0.79375 h -6.61095 c -6.15309,0 -6.61731,0.033 -6.70258,0.47573 -0.22934,1.19083 0.16245,1.25765 6.93362,1.18254 l 6.37991,-0.0708 z m -10.69721,-3.46176 c 0.59166,-0.71291 -0.0259,-1.30074 -1.36654,-1.30074 -1.19106,0 -1.55388,0.40599 -1.19609,1.33837 0.20411,0.53192 2.11321,0.50388 2.56263,-0.0376 z m 10.69721,-0.50699 v -0.79375 h -4.0722 c -3.5126,0 -4.11042,0.0606 -4.35028,0.44084 -0.20227,0.32065 -0.18175,0.55692 0.0752,0.86659 0.30142,0.36319 0.94057,0.41504 4.35028,0.3529 l 3.99695,-0.0728 z m 0.0828,-3.89337 c 0.0653,-0.5661 -0.0469,-0.75019 -0.52916,-0.86846 -0.3366,-0.0825 -3.27802,-0.11646 -6.5365,-0.0754 -5.11174,0.0645 -5.96142,0.13329 -6.19367,0.50176 -0.14804,0.23488 -0.19363,0.62392 -0.1013,0.86453 0.15093,0.39331 0.82958,0.43033 6.72284,0.36669 l 6.55496,-0.0708 z m -42.03651,16.69343 c -0.37075,-0.69276 0.0751,-1.18365 1.97614,-2.17602 0.99937,-0.52168 1.41334,-0.61523 1.80199,-0.40723 0.87959,0.47074 0.46067,1.31879 -1.11504,2.25731 -1.71366,1.02068 -2.25577,1.08702 -2.66309,0.32594 z m 50.55267,-0.32598 c -1.58019,-0.9218 -2.00469,-1.78114 -1.11504,-2.25727 0.38865,-0.208 0.80262,-0.11445 1.80199,0.40723 1.83991,0.96043 2.42292,1.56758 2.06048,2.14579 -0.44345,0.70744 -1.15991,0.63032 -2.74743,-0.29575 z m -51.95803,-3.92566 c -0.23621,-0.13218 -0.42947,-0.52749 -0.42947,-0.87845 0,-0.5252 0.19897,-0.69354 1.12448,-0.95132 0.61846,-0.17227 1.60073,-0.32569 2.18281,-0.34093 1.00073,-0.0262 1.05834,0.0146 1.05834,0.74917 0,0.7368 -0.0905,0.79973 -1.75335,1.21938 -1.13146,0.28555 -1.90567,0.35725 -2.18281,0.20215 z m 55.26532,0.17209 c -0.14552,-0.0457 -0.94919,-0.27366 -1.78593,-0.50658 -1.33418,-0.3714 -1.52136,-0.505 -1.52136,-1.08587 0,-0.89779 0.53175,-1.03826 2.41632,-0.63832 1.59129,0.33769 2.45278,0.86339 2.27735,1.38968 -0.12567,0.37701 -1.05972,0.94368 -1.38638,0.84109 z m -56.23374,-5.29271 c -0.64645,-0.77892 0.009,-1.30129 1.74594,-1.39213 2.26606,-0.11848 2.8134,0.0733 2.7123,0.95012 -0.0811,0.70328 -0.12505,0.71999 -2.09233,0.79492 -1.59683,0.0608 -2.08269,-0.0117 -2.36591,-0.35291 z m 53.63201,0.23227 c -0.42924,-0.42924 -0.15903,-1.40539 0.42995,-1.55321 1.19021,-0.29872 3.68835,-0.0159 3.98114,0.45065 0.53845,0.85809 -0.22723,1.27895 -2.32682,1.27895 -1.04934,0 -1.98726,-0.0794 -2.08427,-0.17639 z m -51.20783,-4.32635 c -1.82124,-0.50494 -2.25686,-0.88828 -1.85746,-1.63457 0.29717,-0.55525 1.17037,-0.60867 2.71966,-0.16637 1.35817,0.38775 1.75049,0.67903 1.75049,1.29968 0,0.85373 -0.79279,1.00583 -2.61269,0.50126 z m 50.82056,0.21728 c -0.41317,-0.41318 -0.40701,-1.13734 0.0124,-1.46192 0.5112,-0.39557 2.693,-0.92459 3.4007,-0.82456 0.46418,0.0656 0.65633,0.28145 0.71675,0.80509 0.087,0.75429 0.19924,0.69864 -3.40229,1.68731 -0.22512,0.0618 -0.55254,-0.0309 -0.7276,-0.20592 z m -49.32724,-4.51244 c -1.55995,-0.87245 -1.88021,-1.24523 -1.63,-1.89727 0.28176,-0.73425 0.98614,-0.68068 2.58532,0.19663 1.64936,0.90484 2.04634,1.49016 1.47642,2.17688 -0.44635,0.53781 -0.71146,0.48589 -2.43174,-0.47624 z m 47.73895,0.5429 c -0.67526,-0.67527 -0.32007,-1.24266 1.36934,-2.18743 1.66143,-0.92913 2.36473,-0.99621 2.65003,-0.25274 0.25841,0.67343 -0.11278,1.10137 -1.67973,1.93655 -1.72299,0.91834 -1.88915,0.95411 -2.33964,0.50362 z"
       id="path12232" /></g></svg>
