<?xml version="1.0" encoding="UTF-8" standalone="no"?>
<!-- Created with Inkscape (http://www.inkscape.org/) -->

<svg
   width="73.262024mm"
   height="67.185974mm"
   viewBox="0 0 73.262024 67.185974"
   version="1.1"
   id="svg5"
   inkscape:version="1.2.2 (732a01da63, 2022-12-09)"
   xml:space="preserve"
   sodipodi:docname="drawing.svg"
   xmlns:inkscape="http://www.inkscape.org/namespaces/inkscape"
   xmlns:sodipodi="http://sodipodi.sourceforge.net/DTD/sodipodi-0.dtd"
   xmlns="http://www.w3.org/2000/svg"
   xmlns:svg="http://www.w3.org/2000/svg"><sodipodi:namedview
     id="namedview7"
     pagecolor="#505050"
     bordercolor="#ffffff"
     borderopacity="1"
     inkscape:showpageshadow="0"
     inkscape:pageopacity="0"
     inkscape:pagecheckerboard="1"
     inkscape:deskcolor="#505050"
     inkscape:document-units="px"
     showgrid="false"
     showborder="false"
     borderlayer="false"
     inkscape:zoom="1.6819304"
     inkscape:cx="1166.814"
     inkscape:cy="1915.9532"
     inkscape:window-width="1920"
     inkscape:window-height="1047"
     inkscape:window-x="-9"
     inkscape:window-y="-9"
     inkscape:window-maximized="1"
     inkscape:current-layer="layer1" /><defs
     id="defs2" /><g
     inkscape:label="Layer 1"
     inkscape:groupmode="layer"
     id="layer1"
     transform="translate(-640.21071,-639.22197)"><g
       id="g2470"
       transform="matrix(1.5038342,0,0,1.5038342,112.10645,270.27541)"
       style="fill:#000000;stroke-width:0.664966"
       inkscape:export-filename="site\project-2\assets\img\favicon.png"
       inkscape:export-xdpi="21.923166"
       inkscape:export-ydpi="21.923166"><path
         id="path2464"
         style="color:#000000;fill:#000000;fill-opacity:1;stroke-width:0.664966;-inkscape-stroke:none"
         d="m 373.90834,246.7878 -8.28321,9.07903 1.95543,1.78336 6.32778,-6.93756 v 36.98068 h 2.64687 v -36.98068 l 6.32985,6.93756 1.95337,-1.78336 -8.28322,-9.07903 -1.32343,-1.45056 z"
         sodipodi:nodetypes="cccccccccccc" /><path
         id="path2466"
         style="color:#000000;fill:#000000;fill-opacity:1;stroke:none;stroke-width:0.664966;-inkscape-stroke:none"
         d="m 360.37129,258.86534 -1.23662,2.33784 c 5.95842,3.15117 8.59337,7.35115 9.88467,11.93932 1.29131,4.58818 1.12769,9.57264 1.16995,13.97848 l 2.64687,0.45254 c -0.0413,-4.31 0.17011,-10.03195 -1.26969,-15.14775 -1.4398,-5.11581 -4.64343,-10.09547 -11.19518,-13.56041 z m 29.71084,0.57205 c -6.55175,3.46495 -9.75383,8.4446 -11.19363,13.56042 -1.4398,5.1158 -1.22783,10.35991 -1.26917,14.6699 l 2.64428,0.0258 c 0.0423,-4.40584 -0.11929,-9.39029 1.17202,-13.97847 1.2913,-4.58818 3.92624,-8.78661 9.88467,-11.93778 z m -30.74231,9.69915 -0.92552,2.47892 c 4.28402,1.59889 6.09228,4.08879 7.06985,6.97839 0.97758,2.8896 0.97275,6.20065 1.18598,9.0997 l 2.63859,-0.19379 c -0.20032,-2.72373 -0.14981,-6.30168 -1.31826,-9.75547 -1.16844,-3.4538 -3.71007,-6.76383 -8.65064,-8.60775 z m 31.77326,0.57465 c -4.94056,1.84391 -7.48167,5.15343 -8.65012,8.60722 -1.16845,3.4538 -1.11637,7.03019 -1.31671,9.75393 l 2.63911,0.19327 c 0.21323,-2.89904 0.20789,-6.21011 1.18546,-9.0997 0.97758,-2.88961 2.78428,-5.37743 7.0683,-6.97632 z"
         sodipodi:nodetypes="ccsccssccsccsccccsccsccsccscc" /><path
         style="color:#000000;fill:#000000;stroke-width:0.664966;-inkscape-stroke:none"
         d="m 397.24219,262.40625 c 0,17.00248 -10.86134,24.95909 -21.71289,24.96094 -10.85156,0.002 -21.71094,-7.96208 -21.71094,-24.58594 h -2.64649 c 10e-6,17.80405 12.17567,27.2345 24.35938,27.23242 12.18371,-0.002 24.35742,-9.44934 24.35742,-27.60742 z"
         id="path2468" /></g></g></svg>
