<?xml version="1.0" encoding="UTF-8" standalone="no"?>
<!-- Created with Inkscape (http://www.inkscape.org/) -->

<svg
   width="77.258362mm"
   height="68.26593mm"
   viewBox="0 0 77.258362 68.26593"
   version="1.1"
   id="svg5"
   inkscape:version="1.2.2 (732a01da63, 2022-12-09)"
   xml:space="preserve"
   sodipodi:docname="drawing.svg"
   xmlns:inkscape="http://www.inkscape.org/namespaces/inkscape"
   xmlns:sodipodi="http://sodipodi.sourceforge.net/DTD/sodipodi-0.dtd"
   xmlns="http://www.w3.org/2000/svg"
   xmlns:svg="http://www.w3.org/2000/svg"><sodipodi:namedview
     id="namedview7"
     pagecolor="#505050"
     bordercolor="#ffffff"
     borderopacity="1"
     inkscape:showpageshadow="0"
     inkscape:pageopacity="0"
     inkscape:pagecheckerboard="1"
     inkscape:deskcolor="#505050"
     inkscape:document-units="px"
     showgrid="false"
     showborder="false"
     borderlayer="false"
     inkscape:zoom="1.6819304"
     inkscape:cx="1166.814"
     inkscape:cy="1915.9532"
     inkscape:window-width="1920"
     inkscape:window-height="1047"
     inkscape:window-x="-9"
     inkscape:window-y="-9"
     inkscape:window-maximized="1"
     inkscape:current-layer="layer1" /><defs
     id="defs2" /><g
     inkscape:label="Layer 1"
     inkscape:groupmode="layer"
     id="layer1"
     transform="translate(-284.38636,-465.47252)"><path
       style="fill:#000000;stroke-width:1"
       d="m 291.17733,533.56205 c -0.097,-0.097 -0.17639,-1.16857 -0.17639,-2.38125 v -2.20486 h 14.41979 14.41979 v 0.67885 c 0,0.37337 0.12325,0.90915 0.27389,1.19063 0.26241,0.49032 0.645,0.51177 9.12812,0.51177 h 8.85424 v 1.19062 1.19063 h -23.37153 c -12.85434,0 -23.4509,-0.0794 -23.54791,-0.17639 z m 30.77985,-11.46528 c 0,-4.94234 0.0914,-7.40833 0.27459,-7.40833 0.15102,0 3.95065,1.19062 8.44363,2.64583 4.49299,1.45521 8.3982,2.64584 8.67827,2.64584 0.47559,0 2.88793,-0.74165 12.97542,-3.98917 2.22523,-0.71637 4.16,-1.3025 4.29948,-1.3025 0.15572,0 0.25361,2.85952 0.25361,7.40833 v 7.40834 h -17.4625 -17.4625 z m -37.57083,-21.29256 v -26.31964 l 4.43177,-0.0725 4.43177,-0.0725 0.1323,-4.36562 0.13229,-4.36563 18.98385,-0.0679 18.98385,-0.0679 v 20.63925 20.63925 h -5.29166 c -4.93889,0 -5.32695,0.0353 -5.82084,0.52917 -0.50983,0.50983 -0.52916,0.88194 -0.52916,10.18645 v 9.6573 h -17.72708 -17.72709 z m 29.12156,22.07701 c 0.617,-0.33021 0.67948,-1.45723 0.0933,-1.68218 -0.75415,-0.28939 -24.18238,-0.18208 -24.73429,0.11329 -0.63777,0.34133 -0.66461,1.1983 -0.0488,1.557 0.63988,0.3727 23.9946,0.38394 24.68979,0.0119 z m 0.37948,-6.47299 v -0.79375 l -12.61521,-0.0687 c -12.53031,-0.0682 -12.61638,-0.065 -12.78801,0.47572 -0.42127,1.32732 -0.46539,1.32306 12.93619,1.2492 l 12.46703,-0.0687 z m -0.46302,-4.79697 c 0.65812,-0.17637 0.81457,-1.09565 0.27782,-1.6324 -0.45711,-0.45711 -24.57248,-0.45711 -25.02959,0 -0.46053,0.46053 -0.38924,1.20192 0.14552,1.51339 0.50051,0.29151 23.54661,0.40298 24.60625,0.11901 z m 0.46302,-6.58011 v -0.79375 l -12.46703,-0.0687 c -13.40158,-0.0739 -13.35746,-0.0781 -12.93619,1.2492 0.17163,0.54075 0.2577,0.54396 12.78801,0.47572 l 12.61521,-0.0687 z m 13.65196,-5.2078 c 0.26318,-0.49175 0.22089,-0.64902 -0.28459,-1.05833 -0.56121,-0.45444 -1.61372,-0.48075 -19.23491,-0.48075 -12.34388,0 -18.81409,0.0925 -19.15297,0.27389 -0.57679,0.30869 -0.67102,1.04854 -0.19428,1.52528 0.24109,0.24109 4.91918,0.3175 19.43757,0.3175 h 19.12006 z m -0.0537,-5.60658 c 0.40688,-0.49026 0.0978,-1.19773 -0.59666,-1.36552 -0.31137,-0.0752 -9.0066,-0.10397 -19.32274,-0.0639 -16.92412,0.0658 -18.78292,0.11465 -19.02596,0.49998 -0.14814,0.23488 -0.19461,0.62184 -0.10326,0.8599 0.15168,0.39525 1.84122,0.43284 19.45659,0.43284 16.033,0 19.34141,-0.0614 19.59203,-0.36334 z m -16.08221,-5.86479 c 3.85709,-1.36086 6.47908,-4.53894 7.1663,-8.68617 0.39595,-2.38952 -0.23535,-5.14491 -1.67155,-7.29563 -1.23465,-1.84891 -2.50143,-2.91925 -4.64167,-3.92191 -1.37495,-0.64414 -1.84836,-0.72337 -4.3222,-0.72337 -2.44876,0 -2.95442,0.0827 -4.26509,0.69722 -6.92608,3.24757 -8.44477,12.26423 -2.96303,17.59188 2.70625,2.63017 7.12921,3.59685 10.69724,2.33798 z m -6.0558,-1.81786 c -2.48619,-0.81077 -2.86293,-1.46562 -1.91368,-3.32631 1.34519,-2.6368 5.10585,-3.61761 7.37498,-1.92346 1.15757,0.86425 2.13174,2.28162 2.20966,3.21495 0.07,0.83896 -0.0138,0.94432 -1.24782,1.56796 -1.61616,0.81676 -4.66962,1.0387 -6.42314,0.46686 z m -5.22922,-4.72016 c -1.02721,-2.28184 -1.05171,-4.96365 -0.065,-7.1188 2.46028,-5.37396 9.34738,-6.86624 13.68599,-2.96546 0.75239,0.67646 1.67666,1.83805 2.05394,2.58131 1.21741,2.3984 1.11016,6.12951 -0.23902,8.31518 l -0.54221,0.87837 -0.73259,-1.27525 c -1.16962,-2.03602 -2.89438,-3.27362 -5.12206,-3.67532 l -1.02587,-0.18499 1.02587,-0.3508 c 1.74297,-0.59601 2.80127,-2.49919 2.3623,-4.2482 -0.26596,-1.05964 -1.75098,-2.40293 -2.89343,-2.61725 -1.3247,-0.24852 -2.90572,0.472 -3.63894,1.65837 -1.22163,1.97664 -0.0561,4.85754 2.13342,5.27322 l 0.94584,0.17957 -1.34755,0.30565 c -0.74115,0.16811 -1.77144,0.56764 -2.28953,0.88784 -1.22809,0.759 -2.78716,2.49614 -2.99947,3.34208 -0.0922,0.36747 -0.25759,0.66813 -0.36746,0.66813 -0.10987,0 -0.53475,-0.74414 -0.94418,-1.65365 z m 6.75757,-6.01927 c -1.03306,-1.03306 -0.33042,-2.64583 1.15271,-2.64583 1.07879,0 1.49312,0.40711 1.49312,1.46711 0,1.5347 -1.58413,2.24043 -2.64583,1.17872 z m 28.31041,41.01784 c -2.11005,-0.70414 -5.94982,-1.96844 -8.53281,-2.80956 l -4.69636,-1.5293 v -1.80303 -1.80303 h 17.4625 17.4625 v 1.79456 1.79455 l -8.26823,2.68543 c -4.54752,1.47698 -8.56588,2.74509 -8.92968,2.81803 -0.39604,0.0794 -2.20089,-0.38111 -4.49792,-1.14765 z m -1.5875,-27.3918 v -17.33021 h 2.24896 2.24896 v 17.33021 17.33021 h -2.24896 -2.24896 z m 10.05417,5.15938 v -4.7625 h 8.99583 8.99583 v 4.7625 4.7625 h -8.99583 -8.99583 z m 0,-16.40417 v -4.7625 h 8.99583 8.99583 v 4.7625 4.7625 h -8.99583 -8.99583 z m 14.30489,2.90111 c 0.732,-0.39176 0.67665,-1.52761 -0.0835,-1.71436 -0.32742,-0.0804 -2.90417,-0.11248 -5.72611,-0.0712 -4.62238,0.0676 -5.15986,0.12259 -5.42396,0.55466 -0.23872,0.39054 -0.17717,0.57479 0.33147,0.99219 0.56783,0.46598 1.06858,0.51259 5.5075,0.51259 2.85991,0 5.09489,-0.11347 5.39464,-0.27389 z m 0.46231,-4.81011 c 0.11374,-0.98649 -0.19579,-1.03309 -6.27196,-0.94419 -4.44851,0.0651 -5.16775,0.13369 -5.40862,0.51591 -0.20185,0.3203 -0.18154,0.55684 0.0743,0.86505 0.30628,0.36904 1.07845,0.41493 5.93778,0.35291 l 5.58572,-0.0713 z m -69.80053,-6.42538 c 1.52277,-1.52796 2.80056,-2.77812 2.83954,-2.77812 0.039,0 0.0709,1.25016 0.0709,2.77812 v 2.77813 h -2.83954 -2.83954 z"
       id="path3431" /></g></svg>
