<?xml version="1.0" encoding="UTF-8" standalone="no"?>
<!-- Created with Inkscape (http://www.inkscape.org/) -->

<svg
   width="82.418854mm"
   height="68.791687mm"
   viewBox="0 0 82.418854 68.791687"
   version="1.1"
   id="svg5"
   inkscape:version="1.2.2 (732a01da63, 2022-12-09)"
   xml:space="preserve"
   sodipodi:docname="drawing.svg"
   xmlns:inkscape="http://www.inkscape.org/namespaces/inkscape"
   xmlns:sodipodi="http://sodipodi.sourceforge.net/DTD/sodipodi-0.dtd"
   xmlns="http://www.w3.org/2000/svg"
   xmlns:svg="http://www.w3.org/2000/svg"><sodipodi:namedview
     id="namedview7"
     pagecolor="#505050"
     bordercolor="#ffffff"
     borderopacity="1"
     inkscape:showpageshadow="0"
     inkscape:pageopacity="0"
     inkscape:pagecheckerboard="1"
     inkscape:deskcolor="#505050"
     inkscape:document-units="px"
     showgrid="false"
     showborder="false"
     borderlayer="false"
     inkscape:zoom="1.6819304"
     inkscape:cx="1166.814"
     inkscape:cy="1915.9532"
     inkscape:window-width="1920"
     inkscape:window-height="1047"
     inkscape:window-x="-9"
     inkscape:window-y="-9"
     inkscape:window-maximized="1"
     inkscape:current-layer="layer1" /><defs
     id="defs2" /><g
     inkscape:label="Layer 1"
     inkscape:groupmode="layer"
     id="layer1"
     transform="translate(-264.30485,-604.49901)"><path
       style="fill:#000000;stroke-width:1"
       d="m 285.20693,671.99707 c 0,-0.84311 0.16125,-1.48785 0.46302,-1.8514 0.43636,-0.52568 0.74489,-0.56165 5.35782,-0.62463 l 4.89479,-0.0668 0.59871,-2.77812 c 0.32929,-1.52797 0.65898,-3.04602 0.73264,-3.37344 l 0.13394,-0.59531 h 8.17921 c 7.5622,0 8.18934,0.0349 8.31345,0.46302 0.0738,0.25466 0.39157,1.71317 0.70608,3.24114 0.31453,1.52797 0.62636,2.86743 0.69297,2.97657 0.0666,0.10914 2.30998,0.19843 4.98528,0.19843 4.72656,0 4.87582,0.0167 5.27605,0.58804 0.23325,0.33301 0.41188,1.13624 0.41188,1.85209 v 1.26404 h -20.37292 -20.37292 z m -19.3777,-11.20795 c -0.51976,-0.47295 -1.07538,-1.26462 -1.2347,-1.75928 -0.20151,-0.62562 -0.28968,-8.55289 -0.28968,-26.04407 0,-24.84848 0.006,-25.15795 0.54507,-26.27065 0.39574,-0.81749 0.85355,-1.2753 1.67104,-1.67104 1.12086,-0.5426 1.29779,-0.54507 39.05889,-0.54507 37.25643,0 37.95222,0.009 39.01443,0.52355 0.59483,0.28795 1.31703,0.91303 1.60489,1.38906 0.51197,0.84663 0.52339,1.42856 0.52339,26.66239 0,28.4936 0.10494,26.75966 -1.69277,27.96981 l -0.89903,0.60519 h -38.67825 -38.67825 z m 76.72752,-27.64896 -0.0675,-24.27552 H 305.57988 268.6705 l -0.0675,24.27552 -0.0675,24.27552 h 37.04444 37.04444 z m -72.96023,-0.0661 v -23.28333 h 35.98333 35.98333 v 23.28333 23.28334 h -35.98333 -35.98333 z m 41.67187,17.61911 c 1.16417,-0.37524 2.616,-0.97 3.2263,-1.32169 l 1.10962,-0.63945 0.41783,0.63768 c 0.51413,0.78467 1.47295,0.8295 2.13336,0.0997 0.48475,-0.53565 0.49256,-0.53228 1.83562,0.79411 l 1.34881,1.33204 1.38119,-1.39856 1.38119,-1.39857 -1.32026,-1.30041 -1.32027,-1.30041 0.5475,-0.58278 c 0.84252,-0.89682 0.56335,-1.76446 -0.77022,-2.39376 -0.0459,-0.0217 0.27222,-0.67652 0.70698,-1.45521 1.48254,-2.65532 2.02345,-4.99084 2.01309,-8.69185 -0.0123,-4.39975 -0.77626,-6.96883 -3.06834,-10.31875 -1.39156,-2.03378 -2.22202,-2.9026 -4.19959,-4.39358 -6.34775,-4.78585 -14.82767,-5.02923 -21.4301,-0.61505 -3.26579,2.18341 -6.09774,5.89796 -7.32226,9.60431 -0.6182,1.87114 -0.71312,2.59898 -0.72913,5.59078 -0.0155,2.89325 0.0796,3.75478 0.59849,5.42396 1.87601,6.03459 6.32805,10.54714 12.23824,12.4046 2.44455,0.76826 2.70411,0.7981 6.06258,0.69683 2.3646,-0.0713 3.51443,-0.2438 5.15937,-0.77399 z m -8.46667,-0.32319 c -0.43656,-0.0679 -1.73496,-0.43126 -2.88532,-0.80755 -5.2814,-1.72757 -9.67667,-6.45125 -11.19607,-12.03261 -0.62671,-2.30213 -0.6127,-6.94342 0.0274,-9.07213 1.50829,-5.01618 4.93869,-9.03262 9.48891,-11.10999 2.64729,-1.20859 4.40699,-1.58949 7.34324,-1.58949 3.06239,0 4.77498,0.3899 7.54062,1.71675 7.57507,3.63422 11.41907,12.02924 9.25769,20.21815 -0.38176,1.44638 -1.73633,4.46791 -2.23915,4.99466 -0.11602,0.12155 -1.22715,0.01 -2.46916,-0.24835 -3.19534,-0.66413 -3.58159,-0.2245 -2.69729,3.07006 0.21482,0.80036 0.392,1.59386 0.39373,1.76332 0.005,0.4419 -2.18945,1.61098 -4.45833,2.37568 -1.93504,0.65219 -6.14294,1.02671 -8.10624,0.7215 z m 5.02474,-7.92364 c 2.353,-0.75136 4.78858,-1.28726 7.07995,-1.55781 l 1.52136,-0.17963 v -7.38929 -7.3893 h -0.79375 c -0.70556,0 -0.79375,-0.0882 -0.79375,-0.79375 0,-0.75305 -0.0557,-0.79375 -1.08629,-0.79375 -1.29106,0 -3.61507,0.55794 -6.2559,1.50189 l -1.91823,0.68566 -1.91823,-0.68566 c -2.64083,-0.94395 -4.96484,-1.50189 -6.2559,-1.50189 -1.0306,0 -1.08629,0.0407 -1.08629,0.79375 0,0.70648 -0.0877,0.79375 -0.79793,0.79375 h -0.79794 l 0.0703,7.32025 0.0703,7.32026 0.66146,0.19001 c 0.36381,0.1045 1.67349,0.34117 2.91042,0.52592 1.23693,0.18476 3.26099,0.66257 4.49792,1.06181 1.23692,0.39924 2.36802,0.73647 2.51354,0.7494 0.14552,0.0129 1.21603,-0.2803 2.3789,-0.65162 z m -4.23099,-1.073 c -1.37951,-0.47249 -6.93376,-1.68469 -7.71918,-1.68469 -0.0473,0 -0.086,-2.8575 -0.086,-6.35 0,-4.05695 0.0955,-6.35 0.26458,-6.35 0.16853,0 0.26458,2.15555 0.26458,5.93751 0,3.26563 0.0962,5.99694 0.21371,6.06959 0.11754,0.0726 1.37279,0.36886 2.78944,0.65826 1.41666,0.28941 3.3945,0.83906 4.39521,1.22145 l 1.81946,0.69526 2.25339,-0.79536 c 1.23937,-0.43744 3.22407,-0.97948 4.41044,-1.20453 1.18637,-0.22505 2.26552,-0.47623 2.39811,-0.55817 0.13346,-0.0825 0.24108,-2.7996 0.24108,-6.0865 0,-3.78196 0.096,-5.93751 0.26458,-5.93751 0.16903,0 0.26458,2.28906 0.26458,6.33801 v 6.33801 l -0.99218,0.16331 c -2.94028,0.48397 -5.3207,1.02789 -7.00385,1.60037 -1.03743,0.35285 -1.89515,0.62755 -1.90604,0.61045 -0.0109,-0.0171 -0.85324,-0.31656 -1.87189,-0.66546 z m -0.52916,-1.85398 c -1.01865,-0.36249 -2.68552,-0.80369 -3.70417,-0.98045 l -1.85208,-0.3214 -0.0708,-6.40818 c -0.0443,-4.00581 0.0252,-6.40818 0.18541,-6.40818 1.01534,0 5.17662,1.15799 6.69846,1.86404 l 0.7276,0.33756 v 6.30753 c 0,3.46914 -0.0298,6.29867 -0.0661,6.28784 -0.0364,-0.0108 -0.89959,-0.31627 -1.91823,-0.67876 z m 1.15902,-2.64692 c -0.38226,-0.46059 -3.46453,-1.4025 -4.86319,-1.48614 -0.78511,-0.0469 -1.05833,0.0375 -1.05833,0.32709 0,0.26479 0.68096,0.57102 2.11666,0.95188 1.16417,0.30883 2.41433,0.68499 2.77813,0.83593 0.8349,0.34638 1.49867,-0.0601 1.02673,-0.62876 z m 0.0505,-2.58496 c -0.61609,-0.74234 -5.19381,-1.87721 -5.87469,-1.45641 -0.54382,0.33611 0.24585,1.03431 1.19181,1.05377 0.45513,0.009 1.60141,0.28793 2.5473,0.61905 1.16243,0.40692 1.82803,0.51864 2.05378,0.34474 0.21766,-0.16766 0.24615,-0.36312 0.0818,-0.56115 z m 0.0693,-2.12011 c 0.19082,-0.49727 -0.20899,-0.78576 -1.80805,-1.30465 -2.07527,-0.67342 -3.76582,-0.92846 -4.07894,-0.61534 -0.40604,0.40604 0.16819,0.97193 1.00248,0.98794 0.38237,0.007 1.52865,0.2931 2.54729,0.63505 2.28537,0.76717 2.16278,0.75159 2.33722,0.297 z m 0.044,-2.79965 c 0,-0.90539 -5.60134,-2.36857 -6.08313,-1.58902 -0.25188,0.40755 0.30667,0.78488 1.18834,0.80276 0.36381,0.007 1.43537,0.29137 2.38125,0.63109 1.92797,0.69244 2.51354,0.72859 2.51354,0.15517 z m 1.7198,4.5268 v -6.29177 l 0.7276,-0.33756 c 1.52184,-0.70605 5.68312,-1.86404 6.69846,-1.86404 0.16019,0 0.2297,2.40237 0.18541,6.40818 l -0.0709,6.40818 -1.85208,0.32052 c -1.01865,0.17628 -2.71529,0.61925 -3.77031,0.98438 l -1.91823,0.66388 z m 5.08861,2.6326 c 1.58919,-0.32864 2.04369,-0.65992 1.56378,-1.13983 -0.20561,-0.20561 -0.93301,-0.1269 -2.57636,0.2788 -2.69901,0.66631 -3.73479,1.22836 -3.27799,1.77877 0.25752,0.31029 0.49406,0.29205 1.53906,-0.11872 0.67912,-0.26694 1.9173,-0.6265 2.75151,-0.79902 z m -1.6741,-2.1677 c 0.78657,-0.27039 1.75425,-0.49161 2.15041,-0.49161 0.85518,0 1.60397,-0.71574 1.0846,-1.03674 -0.64612,-0.39932 -4.78617,0.58237 -5.79289,1.37361 -0.46805,0.36788 0.13588,1.07526 0.70711,0.82824 0.23135,-0.10005 1.06419,-0.40312 1.85077,-0.6735 z m -0.39687,-2.47598 c 1.08375,-0.3638 2.24711,-0.66328 2.58526,-0.66551 0.95875,-0.006 1.44244,-0.40296 1.05731,-0.86701 -0.35729,-0.43051 -1.78634,-0.25413 -4.14667,0.5118 -1.59906,0.51889 -1.99887,0.80738 -1.80805,1.30465 0.18111,0.47196 -0.009,0.49534 2.31215,-0.28393 z m 0.55423,-2.75935 c 1.01865,-0.29452 2.18797,-0.60222 2.59849,-0.68377 0.97865,-0.19441 0.77611,-0.76652 -0.30927,-0.87353 -0.89591,-0.0883 -3.38583,0.54575 -4.59173,1.16934 -0.78242,0.40461 -0.76178,1.32433 0.0239,1.06452 0.23459,-0.0776 1.25997,-0.38203 2.27861,-0.67656 z m 10.31663,19.55824 -1.29831,-1.31814 -0.85197,0.82576 -0.85197,0.82576 -0.26932,-1.02551 c -0.55768,-2.12343 -1.099,-4.67852 -1.01004,-4.76748 0.0508,-0.0508 1.37384,0.2213 2.94014,0.6046 l 2.84783,0.69692 -0.81666,0.81665 -0.81666,0.81666 1.32731,1.344 1.32731,1.34401 -0.61468,0.57745 -0.61466,0.57745 z"
       id="path10011" /></g></svg>
