<?xml version="1.0" encoding="UTF-8" standalone="no"?>
<!-- Created with Inkscape (http://www.inkscape.org/) -->

<svg
   width="210mm"
   height="297mm"
   viewBox="0 0 210 297"
   version="1.1"
   id="svg5"
   inkscape:version="1.2.2 (732a01da63, 2022-12-09)"
   xml:space="preserve"
   sodipodi:docname="financial-solution.svg"
   xmlns:inkscape="http://www.inkscape.org/namespaces/inkscape"
   xmlns:sodipodi="http://sodipodi.sourceforge.net/DTD/sodipodi-0.dtd"
   xmlns="http://www.w3.org/2000/svg"
   xmlns:svg="http://www.w3.org/2000/svg"><sodipodi:namedview
     id="namedview7"
     pagecolor="#505050"
     bordercolor="#ffffff"
     borderopacity="1"
     inkscape:showpageshadow="0"
     inkscape:pageopacity="0"
     inkscape:pagecheckerboard="1"
     inkscape:deskcolor="#505050"
     inkscape:document-units="px"
     showgrid="false"
     showborder="false"
     borderlayer="false"
     inkscape:zoom="1.6819304"
     inkscape:cx="-535.99126"
     inkscape:cy="515.18184"
     inkscape:window-width="1920"
     inkscape:window-height="1047"
     inkscape:window-x="-9"
     inkscape:window-y="-9"
     inkscape:window-maximized="1"
     inkscape:current-layer="layer1" /><defs
     id="defs2" /><g
     inkscape:label="Layer 1"
     inkscape:groupmode="layer"
     id="layer1"><path
       style="fill:#000000;stroke-width:1"
       d="m -140.53334,173.51329 c -0.91692,-0.38778 -1.41737,-1.34743 -1.41737,-2.71791 v -1.26405 h 4.7625 4.7625 v 1.30817 c 0,1.00086 -0.14986,1.48254 -0.63794,2.05052 -0.62557,0.72796 -0.6987,0.74353 -3.77032,0.80271 -1.7228,0.0332 -3.38752,-0.0476 -3.69937,-0.17944 z m -4.72466,-6.05169 c -1.72498,-0.58422 -2.24896,-1.53355 -2.24896,-4.07455 v -2.0578 h 10.48584 10.48583 l -0.12433,1.93732 c -0.13094,2.04031 -0.63272,3.24271 -1.62972,3.90526 -0.45156,0.30008 -2.15252,0.38452 -8.50199,0.42206 -4.36563,0.0258 -8.17563,-0.0337 -8.46667,-0.13229 z m -2.78829,-11.49016 c -1.4771,-4.68828 -2.288,-6.39906 -4.47528,-9.4415 -3.34227,-4.64902 -4.49711,-7.92123 -4.5058,-12.76708 -0.0155,-8.65268 5.32477,-16.06306 13.62145,-18.90167 1.92588,-0.65892 2.47439,-0.72553 6.08542,-0.73907 4.30792,-0.0162 5.62647,0.24449 8.66734,1.71334 8.32173,4.01971 12.78431,13.12282 10.91207,22.25931 -0.4992,2.43612 -2.29878,6.10027 -4.26419,8.6824 -1.85172,2.43277 -2.88682,4.63562 -4.32029,9.19427 l -1.10238,3.50573 h -9.75691 -9.75691 z m 14.29766,-6.91264 c 7.63514,-1.86754 12.68119,-8.14692 12.69609,-15.7992 0.005,-2.47724 -0.75117,-5.54544 -1.90518,-7.73216 -1.33921,-2.53764 -4.34105,-5.38314 -7.08674,-6.71764 -2.65778,-1.29178 -4.28129,-1.66596 -7.22824,-1.66596 -4.13207,0 -7.87072,1.49211 -10.97979,4.38209 -1.9601,1.82196 -3.21268,3.71657 -4.23251,6.40191 -0.59763,1.57364 -0.67864,2.18879 -0.68787,5.22329 -0.009,2.94095 0.0783,3.6889 0.60204,5.15937 2.42097,6.79774 8.25259,10.99869 15.38262,11.08126 1.09141,0.0126 2.63922,-0.1372 3.43958,-0.33296 z m -6.5483,-1.88915 c -6.74455,-1.46513 -11.54434,-7.81255 -11.1007,-14.67998 0.25268,-3.91145 1.86049,-7.32232 4.60435,-9.76789 5.79277,-5.16302 14.21634,-4.93543 19.69777,0.53219 7.97357,7.95348 3.88121,21.59752 -7.18139,23.94295 -2.11891,0.44924 -3.86286,0.44134 -6.02003,-0.0273 z m 5.56416,-2.10473 c 4.90455,-1.03927 8.75606,-5.1518 9.49641,-10.13998 0.95233,-6.41636 -3.62205,-12.51028 -10.21028,-13.60199 -6.38059,-1.0573 -12.65516,3.61485 -13.67743,10.18444 -1.10337,7.09081 4.4944,13.61505 11.93586,13.91134 0.3638,0.0145 1.46875,-0.14473 2.45544,-0.35381 z m -6.23099,-2.35255 c -1.94734,-0.82007 -3.16796,-1.75629 -4.30657,-3.30315 -3.16621,-4.30148 -2.582,-10.29534 1.33997,-13.7476 5.05633,-4.45076 12.79511,-2.94465 15.85046,3.08478 2.48144,4.89689 0.39051,11.15579 -4.53731,13.58174 -1.54309,0.75967 -2.05225,0.87189 -4.28555,0.9446 -2.20223,0.0717 -2.73449,-0.002 -4.061,-0.56037 z m 4.55999,-1.47406 c 0.15064,-0.28147 0.27389,-0.87678 0.27389,-1.32291 0,-0.57851 0.12563,-0.81115 0.43805,-0.81115 0.67989,0 2.09391,-1.20299 2.46387,-2.09615 0.91588,-2.21113 -1.38356,-4.78301 -4.27634,-4.78301 -0.76227,0 -2.06516,-1.00154 -2.06516,-1.5875 0,-0.15875 0.30671,-0.59535 0.68158,-0.97021 0.58606,-0.58607 0.8479,-0.66283 1.86855,-0.54779 0.71615,0.0807 1.4339,0.36576 1.80946,0.71858 0.84683,0.79555 1.7913,0.52487 1.67506,-0.48007 -0.0587,-0.50715 -0.43005,-0.92756 -1.32393,-1.49864 -0.87818,-0.56105 -1.24661,-0.97337 -1.25677,-1.40645 -0.0511,-2.17722 -2.13103,-2.13393 -2.13103,0.0443 0,0.49598 -0.24239,0.77592 -0.9887,1.14187 -1.14501,0.56147 -2.18674,1.97789 -2.18531,2.97134 0.001,0.88548 0.83618,2.25115 1.73715,2.84149 0.38778,0.25409 1.42564,0.5923 2.30634,0.75157 2.79932,0.50625 3.38215,2.36088 0.96911,3.08384 -1.07997,0.32357 -1.81741,0.12266 -3.19169,-0.86953 -0.61174,-0.44165 -1.29274,-0.0864 -1.29274,0.67443 0,0.70869 1.0049,1.6574 2.02737,1.91402 0.47382,0.11893 0.61847,0.33823 0.61847,0.93769 0,1.05682 0.43903,1.80601 1.05833,1.80601 0.2808,0 0.6338,-0.2303 0.78444,-0.51178 z m -39.74433,-3.74275 c -0.62827,-0.36593 -0.58444,-1.21813 0.081,-1.57424 0.35348,-0.18917 2.11752,-0.26193 5.03721,-0.20774 3.64173,0.0676 4.54067,0.15859 4.74363,0.48026 0.34284,0.54338 0.32296,0.69149 -0.15727,1.17172 -0.34544,0.34544 -1.16226,0.41442 -4.82865,0.40773 -2.50248,-0.005 -4.61332,-0.1248 -4.87589,-0.27773 z m 68.08672,-0.46563 c -0.18733,-0.35002 -0.17103,-0.6293 0.0547,-0.93806 0.28308,-0.38713 0.90601,-0.431 5.21527,-0.36727 l 4.893788,0.0724 v 0.79375 0.79375 l -4.948528,0.0719 c -4.61682,0.0671 -4.96641,0.0385 -5.21526,-0.42647 z m -53.7962,-23.52411 c -1.73517,-1.70987 -3.26383,-3.30859 -3.397,-3.55271 -0.29946,-0.54891 -0.0784,-1.18135 0.489,-1.39909 0.58861,-0.22587 7.20445,6.35707 7.20445,7.16863 0,0.4881 -0.44797,0.89202 -0.9893,0.89202 -0.0838,0 -1.57197,-1.39898 -3.30715,-3.10885 z m 45.0952,2.52677 c -0.17462,-0.17463 -0.3175,-0.44423 -0.3175,-0.59913 0,-0.1549 1.53159,-1.80982 3.40352,-3.6776 3.5023,-3.49452 4.29609,-3.94948 4.49132,-2.57418 0.072,0.507 -0.55277,1.27534 -3.17103,3.8999 -1.79336,1.79768 -3.44699,3.26851 -3.67473,3.26851 -0.22774,0 -0.55695,-0.14288 -0.73158,-0.3175 z m -21.31807,-8.81795 c -0.0913,-0.23806 -0.16609,-2.43865 -0.16609,-4.89021 0,-3.69699 0.0708,-4.52821 0.41525,-4.87263 0.31554,-0.31554 0.53928,-0.34886 0.93183,-0.13878 0.48825,0.2613 0.51264,0.54793 0.44465,5.225 l -0.0719,4.94853 -0.69381,0.0805 c -0.45209,0.0524 -0.75167,-0.0703 -0.85989,-0.35237 z"
       id="path1162" /></g></svg>
