<?xml version="1.0" encoding="UTF-8" standalone="no"?>
<!-- Created with Inkscape (http://www.inkscape.org/) -->

<svg
   width="85.57782mm"
   height="87.795044mm"
   viewBox="0 0 85.57782 87.795044"
   version="1.1"
   id="svg5"
   inkscape:version="1.2.2 (732a01da63, 2022-12-09)"
   xml:space="preserve"
   xmlns:inkscape="http://www.inkscape.org/namespaces/inkscape"
   xmlns:sodipodi="http://sodipodi.sourceforge.net/DTD/sodipodi-0.dtd"
   xmlns="http://www.w3.org/2000/svg"
   xmlns:svg="http://www.w3.org/2000/svg"><sodipodi:namedview
     id="namedview7"
     pagecolor="#505050"
     bordercolor="#ffffff"
     borderopacity="1"
     inkscape:showpageshadow="0"
     inkscape:pageopacity="0"
     inkscape:pagecheckerboard="1"
     inkscape:deskcolor="#505050"
     inkscape:document-units="px"
     showgrid="false"
     showborder="false"
     borderlayer="false" /><defs
     id="defs2" /><g
     inkscape:label="Layer 1"
     inkscape:groupmode="layer"
     id="layer1"
     transform="translate(-283.36112,-328.71313)"><path
       style="fill:#000000;stroke-width:1"
       d="m 299.12192,416.3986 c -2.6036,-0.47404 -6.19691,-1.89955 -7.77014,-3.08251 -0.4607,-0.34642 -0.466,-0.42588 -0.0785,-1.1753 1.05695,-2.04393 3.91483,-4.22755 6.76473,-5.16873 1.7178,-0.5673 5.18787,-0.66717 6.94464,-0.19987 1.78655,0.47523 4.14264,1.83611 5.46057,3.15405 1.1239,1.1239 2.16919,2.55738 2.17142,2.97785 0.002,0.37699 -3.32014,2.11642 -5.2668,2.75762 -1.96659,0.64778 -6.48988,1.05297 -8.22596,0.73689 z m -11.587,-6.59139 c -1.33968,-1.52195 -2.74984,-4.21965 -3.52639,-6.74617 -0.90568,-2.94662 -0.85548,-7.50448 0.11512,-10.45105 2.05765,-6.24667 7.11981,-10.9513 13.41077,-12.46362 1.99514,-0.47961 6.6606,-0.46291 8.60952,0.0308 2.11985,0.53704 5.47702,2.22461 7.3001,3.66957 3.54613,2.81065 6.02096,7.39001 6.61401,12.23838 0.5817,4.75552 -1.05335,10.20577 -4.13735,13.79142 l -0.96933,1.12701 -1.09836,-1.48252 c -1.29946,-1.75396 -3.66036,-3.61098 -5.86754,-4.61528 -6.33261,-2.88141 -14.24111,-0.92059 -18.24978,4.52482 l -1.15328,1.56662 z M 304.54588,399.657 c 1.25151,-0.56999 2.86839,-2.28117 3.43357,-3.63384 0.22159,-0.53034 0.40028,-1.63432 0.39708,-2.45329 -0.0178,-4.56587 -4.32013,-7.67244 -8.77655,-6.33726 -1.36331,0.40845 -3.20527,2.05373 -3.89548,3.47952 -0.66084,1.36512 -0.74271,3.97036 -0.168,5.34584 1.10205,2.63757 3.3215,4.09654 6.21706,4.08684 1.10272,-0.004 2.11928,-0.18129 2.79232,-0.48781 z m -4.07593,-2.48935 c -1.35455,-0.48762 -2.44946,-1.99662 -2.47075,-3.4052 -0.0349,-2.31059 1.51717,-3.9286 3.76856,-3.9286 2.25527,0 3.80348,1.61804 3.7684,3.93839 -0.0378,2.49772 -2.66624,4.25935 -5.06621,3.39541 z m 53.94989,0.31226 c -1.52797,-1.31145 -3.64839,-3.09251 -4.71205,-3.95791 l -1.93392,-1.57347 h -12.77453 -12.77453 l -0.75911,-1.88565 c -0.89743,-2.22928 -2.8235,-5.13054 -4.63795,-6.98621 l -1.30166,-1.33123 v -11.02883 -11.02883 l 0.81552,-0.92882 c 0.45748,-0.52104 1.24156,-1.04716 1.78594,-1.19836 0.60118,-0.16698 6.19846,-0.27009 14.71069,-0.27101 l 13.74027,-0.002 2.16855,2.11667 c 1.1927,1.16417 2.39145,2.11518 2.66389,2.11335 0.27245,-0.002 1.48247,-0.95432 2.68894,-2.11666 l 2.19359,-2.11324 h 4.61408 c 5.20322,0 6.32226,0.25669 7.34018,1.68374 l 0.5919,0.8298 0.0704,14.55208 c 0.0786,16.24639 0.1324,15.72788 -1.76318,16.99421 -0.83283,0.55637 -1.18531,0.60058 -4.78764,0.60058 -5.00129,0 -4.76438,-0.22141 -4.76438,4.45261 0,1.91669 -0.0893,3.48002 -0.19843,3.47406 -0.10914,-0.006 -1.4486,-1.08384 -2.97657,-2.39529 z m 2.91042,-17.24922 c 0.79832,-0.40185 1.00468,-1.52718 0.39234,-2.13952 -0.38714,-0.38714 -1.94851,-0.43014 -15.61868,-0.43014 h -15.18854 l -0.39396,0.60125 c -0.49056,0.74869 -0.28218,1.63222 0.47087,1.9965 0.89234,0.43165 29.47723,0.40519 30.33797,-0.0281 z m 0.20571,-9.8607 c 0.69632,-0.48772 0.75991,-1.34092 0.15016,-2.01469 -0.41443,-0.45794 -1.2434,-0.48385 -15.47813,-0.48385 -14.68746,0 -15.05265,0.0124 -15.56941,0.52917 -0.29104,0.29104 -0.52916,0.70776 -0.52916,0.92604 0,0.21828 0.23812,0.635 0.52916,0.92604 0.51663,0.51663 0.88195,0.52917 15.41926,0.52917 13.04847,0 14.96281,-0.0509 15.47812,-0.41188 z m -69.90452,-9.26431 c -0.36865,-0.36865 -0.41578,-2.19715 -0.41578,-16.13028 0,-15.26568 0.0146,-15.72232 0.51178,-15.98839 0.34021,-0.18208 7.42196,-0.2739 21.12566,-0.2739 19.63438,0 20.63469,0.023 21.05177,0.48386 0.39441,0.43582 0.43788,1.72154 0.43788,12.95185 v 12.46801 l -6.70232,0.0789 -6.70232,0.0789 -1.29433,0.80075 c -1.63416,1.01098 -2.79501,2.81951 -2.96847,4.62467 l -0.12697,1.32146 h -12.25057 c -10.7841,0 -12.30033,-0.0498 -12.66633,-0.41577 z m 21.52925,-11.4858 c 3.26575,-1.88781 6.10892,-3.60357 6.31816,-3.81281 0.9272,-0.92719 0.2537,-1.49905 -5.95389,-5.05541 -4.11023,-2.35477 -6.25941,-3.43959 -6.81434,-3.43959 h -0.81058 l -0.0703,7.50848 c -0.0722,7.70574 -0.0102,8.23581 0.96262,8.23298 0.23684,-8e-4 3.1026,-1.54583 6.36836,-3.43365 z m 37.41312,3.63673 c -2.63522,-2.65762 -5.00293,-5.24876 -5.26159,-5.75808 -1.31921,-2.5977 -0.0965,-6.06177 2.63363,-7.4615 1.62777,-0.83454 4.23856,-0.59885 5.80177,0.52376 1.36069,0.97717 1.96184,1.05321 2.85059,0.36057 1.24804,-0.97264 2.33199,-1.36033 3.8034,-1.36033 4.23488,0 6.87557,4.14251 5.06838,7.95087 -0.23963,0.50499 -2.61126,3.09134 -5.27029,5.74745 l -4.83459,4.8293 z"
       id="path1216" /></g></svg>
